<svg xmlns="http://www.w3.org/2000/svg" xmlns:xlink="http://www.w3.org/1999/xlink" width="205" zoomAndPan="magnify" viewBox="0 0 153.75 153.749995" height="205" preserveAspectRatio="xMidYMid meet" version="1.0"><path fill="#000000" d="M 98.664062 112.246094 L 136.257812 149.832031 C 139.980469 153.550781 146.027344 153.550781 149.75 149.828125 C 153.46875 146.105469 153.46875 140.058594 149.746094 136.335938 L 112.175781 98.78125 C 119.734375 88.5 124.203125 75.804688 124.203125 62.070312 C 124.203125 27.8125 96.386719 0 62.128906 0 C 27.871094 0 0.0585938 27.8125 0.0585938 62.070312 C 0.0585938 96.332031 27.871094 124.144531 62.128906 124.144531 C 75.78125 124.144531 88.410156 119.726562 98.664062 112.246094 Z M 62.128906 19.078125 C 85.859375 19.078125 105.125 38.34375 105.125 62.070312 C 105.125 85.800781 85.859375 105.066406 62.128906 105.066406 C 38.398438 105.066406 19.136719 85.800781 19.136719 62.070312 C 19.136719 38.34375 38.398438 19.078125 62.128906 19.078125 Z M 62.128906 19.078125 " fill-opacity="1" fill-rule="evenodd"/><path fill="#000000" d="M 98.664062 112.246094 L 136.257812 149.832031 C 139.980469 153.550781 146.027344 153.550781 149.75 149.828125 C 153.46875 146.105469 153.46875 140.058594 149.746094 136.335938 L 112.175781 98.78125 C 119.734375 88.5 124.203125 75.804688 124.203125 62.070312 C 124.203125 27.8125 96.386719 0 62.128906 0 C 27.871094 0 0.0585938 27.8125 0.0585938 62.070312 C 0.0585938 96.332031 27.871094 124.144531 62.128906 124.144531 C 75.78125 124.144531 88.410156 119.726562 98.664062 112.246094 Z M 62.128906 19.078125 C 85.859375 19.078125 105.125 38.34375 105.125 62.070312 C 105.125 85.800781 85.859375 105.066406 62.128906 105.066406 C 38.398438 105.066406 19.136719 85.800781 19.136719 62.070312 C 19.136719 38.34375 38.398438 19.078125 62.128906 19.078125 Z M 62.128906 19.078125 " fill-opacity="1" fill-rule="evenodd"/></svg>